<svg xmlns="http://www.w3.org/2000/svg" width="120" height="120" viewBox="0 0 120 120"><rect width="120" height="120" rx="28" fill="#F6EFE6"/><path d="M 37.02,37.02 L 36.29,37.68 L 35.58,38.37 L 34.89,39.07 L 34.21,39.80 L 33.56,40.55 L 32.94,41.33 L 32.33,42.12 L 31.75,42.93 L 31.19,43.76 L 30.66,44.61 L 30.15,45.48 L 29.67,46.36 L 29.21,47.26 L 28.78,48.17 L 28.37,49.10 L 28.00,50.04 L 27.65,51.00 L 27.33,51.97 L 27.04,52.94 L 26.78,53.93 L 26.55,54.93 L 26.35,55.94 L 26.18,56.95 L 26.04,57.97 L 25.93,58.99 L 25.85,60.03 L 25.81,61.06 L 25.79,62.10 L 25.81,63.14 L 25.85,64.18 L 25.93,65.22 L 26.04,66.25 L 26.19,67.29 L 26.36,68.33 L 26.57,69.36 L 26.80,70.38 L 27.07,71.40 L 27.37,72.41 L 27.71,73.42 L 28.07,74.42 L 28.46,75.40 L 28.89,76.38 L 29.34,77.34 L 29.82,78.29 L 30.34,79.23 L 30.88,80.16 L 31.45,81.07 L 32.05,81.96 L 32.68,82.83 L 33.33,83.69 L 34.02,84.53 L 34.73,85.35 L 35.46,86.15 L 36.22,86.92 L 37.00,87.68 L 37.81,88.41 L 38.64,89.12 L 39.50,89.81 L 40.37,90.47 L 41.27,91.10 L 42.19,91.71 L 43.13,92.29 L 44.08,92.84 L 45.06,93.36 L 46.05,93.86 L 47.06,94.32 L 48.08,94.76 L 49.12,95.16 L 50.17,95.54 L 51.23,95.88 L 52.31,96.19 L 56.05,78.58 L 55.47,78.52 L 54.90,78.43 L 54.33,78.33 L 53.75,78.21 L 53.18,78.07 L 52.62,77.92 L 52.05,77.75 L 51.49,77.55 L 50.94,77.34 L 50.38,77.12 L 49.84,76.87 L 49.30,76.61 L 48.77,76.33 L 48.24,76.04 L 47.72,75.72 L 47.21,75.39 L 46.71,75.05 L 46.22,74.69 L 45.73,74.31 L 45.26,73.91 L 44.80,73.50 L 44.35,73.08 L 43.91,72.64 L 43.49,72.18 L 43.07,71.72 L 42.67,71.23 L 42.29,70.74 L 41.92,70.23 L 41.56,69.71 L 41.22,69.17 L 40.89,68.63 L 40.58,68.07 L 40.29,67.50 L 40.01,66.92 L 39.75,66.33 L 39.51,65.74 L 39.28,65.13 L 39.07,64.51 L 38.88,63.89 L 38.71,63.26 L 38.56,62.62 L 38.43,61.98 L 38.32,61.33 L 38.22,60.67 L 38.15,60.02 L 38.09,59.35 L 38.06,58.69 L 38.05,58.02 L 38.05,57.35 L 38.08,56.68 L 38.13,56.00 L 38.20,55.33 L 38.29,54.66 L 38.40,53.99 L 38.53,53.32 L 38.68,52.65 L 38.85,51.99 L 39.05,51.33 L 39.26,50.67 L 39.50,50.02 L 39.75,49.38 L 40.03,48.74 L 40.32,48.11 L 40.64,47.49 L 40.97,46.87 L 41.33,46.26 L 41.70,45.67 L 42.09,45.08 L 42.50,44.50 L 42.93,43.94 L 43.38,43.38 Z" fill="#14463A"/><circle cx="40.20" cy="40.20" r="4.5" fill="#14463A"/><circle cx="54.18" cy="87.39" r="9.0" fill="#14463A"/><path d="M 82.98,37.02 L 83.71,37.68 L 84.42,38.37 L 85.11,39.07 L 85.79,39.80 L 86.44,40.55 L 87.06,41.33 L 87.67,42.12 L 88.25,42.93 L 88.81,43.76 L 89.34,44.61 L 89.85,45.48 L 90.33,46.36 L 90.79,47.26 L 91.22,48.17 L 91.63,49.10 L 92.00,50.04 L 92.35,51.00 L 92.67,51.97 L 92.96,52.94 L 93.22,53.93 L 93.45,54.93 L 93.65,55.94 L 93.82,56.95 L 93.96,57.97 L 94.07,58.99 L 94.15,60.03 L 94.19,61.06 L 94.21,62.10 L 94.19,63.14 L 94.15,64.18 L 94.07,65.22 L 93.96,66.25 L 93.81,67.29 L 93.64,68.33 L 93.43,69.36 L 93.20,70.38 L 92.93,71.40 L 92.63,72.41 L 92.29,73.42 L 91.93,74.42 L 91.54,75.40 L 91.11,76.38 L 90.66,77.34 L 90.18,78.29 L 89.66,79.23 L 89.12,80.16 L 88.55,81.07 L 87.95,81.96 L 87.32,82.83 L 86.67,83.69 L 85.98,84.53 L 85.27,85.35 L 84.54,86.15 L 83.78,86.92 L 83.00,87.68 L 82.19,88.41 L 81.36,89.12 L 80.50,89.81 L 79.63,90.47 L 78.73,91.10 L 77.81,91.71 L 76.87,92.29 L 75.92,92.84 L 74.94,93.36 L 73.95,93.86 L 72.94,94.32 L 71.92,94.76 L 70.88,95.16 L 69.83,95.54 L 68.77,95.88 L 67.69,96.19 L 63.95,78.58 L 64.53,78.52 L 65.10,78.43 L 65.67,78.33 L 66.25,78.21 L 66.82,78.07 L 67.38,77.92 L 67.95,77.75 L 68.51,77.55 L 69.06,77.34 L 69.62,77.12 L 70.16,76.87 L 70.70,76.61 L 71.23,76.33 L 71.76,76.04 L 72.28,75.72 L 72.79,75.39 L 73.29,75.05 L 73.78,74.69 L 74.27,74.31 L 74.74,73.91 L 75.20,73.50 L 75.65,73.08 L 76.09,72.64 L 76.51,72.18 L 76.93,71.72 L 77.33,71.23 L 77.71,70.74 L 78.08,70.23 L 78.44,69.71 L 78.78,69.17 L 79.11,68.63 L 79.42,68.07 L 79.71,67.50 L 79.99,66.92 L 80.25,66.33 L 80.49,65.74 L 80.72,65.13 L 80.93,64.51 L 81.12,63.89 L 81.29,63.26 L 81.44,62.62 L 81.57,61.98 L 81.68,61.33 L 81.78,60.67 L 81.85,60.02 L 81.91,59.35 L 81.94,58.69 L 81.95,58.02 L 81.95,57.35 L 81.92,56.68 L 81.87,56.00 L 81.80,55.33 L 81.71,54.66 L 81.60,53.99 L 81.47,53.32 L 81.32,52.65 L 81.15,51.99 L 80.95,51.33 L 80.74,50.67 L 80.50,50.02 L 80.25,49.38 L 79.97,48.74 L 79.68,48.11 L 79.36,47.49 L 79.03,46.87 L 78.67,46.26 L 78.30,45.67 L 77.91,45.08 L 77.50,44.50 L 77.07,43.94 L 76.62,43.38 Z" fill="#FF7A5C"/><circle cx="79.80" cy="40.20" r="4.5" fill="#FF7A5C"/><circle cx="65.82" cy="87.39" r="9.0" fill="#FF7A5C"/><g fill="#14463A"><circle cx="66.00" cy="54.42" r="3.99"/><path d="M 60.54,66.99 C 60.54,59.15 63.23,56.42 66.00,56.42 C 68.77,56.42 71.46,59.15 71.46,63.39 L 71.46,63.39 L 70.25,64.18 L 69.03,64.84 L 67.82,65.41 L 66.61,65.88 L 65.39,66.26 L 64.18,66.56 L 62.97,66.78 L 61.75,66.92 L 60.54,66.99 Z"/><circle cx="52.00" cy="55.06" r="3.52"/><path d="M 47.19,62.36 C 47.19,59.23 49.56,56.82 52.00,56.82 C 54.44,56.82 56.81,59.23 56.81,66.74 L 56.81,66.74 L 55.74,66.54 L 54.67,66.28 L 53.60,65.95 L 52.53,65.55 L 51.47,65.09 L 50.40,64.54 L 49.33,63.91 L 48.26,63.19 L 47.19,62.36 Z"/><circle cx="59.00" cy="58.93" r="2.75"/><path d="M 55.23,66.42 C 55.23,62.19 57.09,60.30 59.00,60.30 C 60.91,60.30 62.77,62.19 62.77,66.81 L 62.77,66.81 L 61.93,66.91 L 61.09,66.97 L 60.26,67.00 L 59.42,66.99 L 58.58,66.95 L 57.74,66.87 L 56.91,66.76 L 56.07,66.61 L 55.23,66.42 Z"/></g></svg>