<svg xmlns="http://www.w3.org/2000/svg" width="799" height="192" viewBox="0 0 799 192"><g transform="translate(0,129.4) scale(0.12000,-0.12000)"><path d="M 165,346 L 165,442 L 366,442 Q 370,435 374,422 Q 379,410 379,394 Q 379,369 367,357 Q 356,346 335,346 L 165,346 Z M 184,490 L 184,361 L 66,361 L 66,495 Q 66,558 91,597 Q 117,637 162,655 Q 208,674 266,674 Q 331,674 365,657 Q 399,640 399,606 Q 399,591 392,578 Q 386,566 377,558 Q 358,566 334,571 Q 311,576 285,576 Q 232,576 208,556 Q 184,536 184,490 Z M 66,396 L 189,396 L 189,2 Q 181,-1 166,-3 Q 151,-6 133,-6 Q 99,-6 82,6 Q 66,19 66,51 L 66,396 Z M 664,79 Q 694,79 718,85 Q 742,91 753,98 L 753,212 L 654,202 Q 613,199 591,184 Q 570,170 570,142 Q 570,113 593,96 Q 616,79 664,79 Z M 659,487 Q 757,487 815,445 Q 873,404 873,315 L 873,85 Q 873,61 861,47 Q 850,33 832,22 Q 804,6 761,-4 Q 718,-15 664,-15 Q 564,-15 507,23 Q 450,62 450,138 Q 450,205 492,240 Q 535,276 616,284 L 752,298 L 752,316 Q 752,356 724,374 Q 697,392 647,392 Q 608,392 571,382 Q 534,372 505,358 Q 495,366 487,380 Q 479,394 479,409 Q 479,445 519,462 Q 547,475 584,481 Q 622,487 659,487 Z M 1412,327 L 1412,213 L 1289,213 L 1289,313 Q 1289,352 1265,370 Q 1242,389 1206,389 Q 1180,389 1158,381 Q 1137,374 1122,364 L 1122,213 L 999,213 L 999,372 Q 999,396 1009,411 Q 1019,427 1039,440 Q 1070,461 1115,474 Q 1161,487 1210,487 Q 1259,487 1300,472 Q 1341,457 1367,428 Q 1374,422 1380,416 Q 1386,410 1390,402 Q 1399,387 1405,367 Q 1412,348 1412,327 Z M 1701,317 L 1701,213 L 1578,213 L 1578,313 Q 1578,352 1556,370 Q 1534,389 1497,389 Q 1470,389 1444,378 Q 1419,367 1401,349 L 1339,424 Q 1370,450 1412,468 Q 1454,487 1512,487 Q 1565,487 1608,470 Q 1651,453 1676,415 Q 1701,377 1701,317 Z M 999,261 L 1122,261 L 1122,2 Q 1114,-1 1099,-3 Q 1084,-6 1066,-6 Q 1032,-6 1015,6 Q 999,19 999,51 L 999,261 Z M 1289,261 L 1412,261 L 1412,2 Q 1404,-1 1388,-3 Q 1373,-6 1356,-6 Q 1321,-6 1305,6 Q 1289,19 1289,51 L 1289,261 Z M 1578,261 L 1701,261 L 1701,2 Q 1694,-1 1678,-3 Q 1663,-6 1646,-6 Q 1611,-6 1594,6 Q 1578,19 1578,51 L 1578,261 Z M 1834,302 L 1958,302 L 1958,-1 Q 1950,-3 1935,-5 Q 1920,-8 1903,-8 Q 1868,-8 1851,5 Q 1834,18 1834,50 L 1834,302 Z M 1958,253 L 1834,253 L 1834,469 Q 1842,471 1857,473 Q 1872,476 1890,476 Q 1925,476 1941,463 Q 1958,450 1958,418 L 1958,253 Z M 1865,609 L 1964,718 Q 2000,718 2019,701 Q 2039,685 2039,664 Q 2039,646 2031,634 Q 2023,622 2004,605 L 1911,522 Q 1880,522 1863,537 Q 1846,553 1846,571 Q 1846,582 1850,590 Q 1855,599 1865,609 Z M 2098,264 L 2221,258 L 2221,2 Q 2213,-1 2198,-3 Q 2183,-6 2165,-6 Q 2131,-6 2114,6 Q 2098,19 2098,51 L 2098,264 Z M 2221,195 L 2098,201 L 2098,650 Q 2105,652 2120,655 Q 2136,658 2153,658 Q 2189,658 2205,645 Q 2221,633 2221,601 L 2221,195 Z M 2349,614 Q 2349,643 2369,663 Q 2390,683 2421,683 Q 2453,683 2472,663 Q 2492,643 2492,614 Q 2492,586 2472,565 Q 2453,545 2421,545 Q 2390,545 2369,565 Q 2349,586 2349,614 Z M 2359,264 L 2483,264 L 2483,2 Q 2475,-1 2460,-3 Q 2445,-6 2427,-6 Q 2393,-6 2376,6 Q 2359,19 2359,51 L 2359,264 Z M 2483,201 L 2359,201 L 2359,469 Q 2367,472 2382,474 Q 2398,477 2416,477 Q 2451,477 2467,464 Q 2483,452 2483,419 L 2483,201 Z M 2802,79 Q 2832,79 2856,85 Q 2880,91 2891,98 L 2891,212 L 2792,202 Q 2751,199 2729,184 Q 2708,170 2708,142 Q 2708,113 2731,96 Q 2754,79 2802,79 Z M 2797,487 Q 2895,487 2953,445 Q 3011,404 3011,315 L 3011,85 Q 3011,61 2999,47 Q 2988,33 2970,22 Q 2942,6 2899,-4 Q 2856,-15 2802,-15 Q 2702,-15 2645,23 Q 2588,62 2588,138 Q 2588,205 2630,240 Q 2673,276 2754,284 L 2890,298 L 2890,316 Q 2890,356 2862,374 Q 2835,392 2785,392 Q 2746,392 2709,382 Q 2672,372 2643,358 Q 2633,366 2625,380 Q 2617,394 2617,409 Q 2617,445 2657,462 Q 2685,475 2722,481 Q 2760,487 2797,487 Z M 3391,174 L 3386,260 L 3654,300 Q 3651,338 3625,366 Q 3599,394 3549,394 Q 3498,394 3464,358 Q 3430,323 3429,257 L 3432,205 Q 3441,141 3481,111 Q 3522,81 3584,81 Q 3626,81 3662,93 Q 3698,106 3719,121 Q 3733,112 3741,98 Q 3750,85 3750,69 Q 3750,43 3727,24 Q 3704,6 3665,-4 Q 3626,-14 3576,-14 Q 3499,-14 3439,14 Q 3380,43 3346,100 Q 3313,157 3313,242 Q 3313,303 3332,349 Q 3351,395 3383,425 Q 3416,456 3459,471 Q 3502,487 3549,487 Q 3615,487 3664,460 Q 3714,434 3742,387 Q 3771,340 3771,279 Q 3771,251 3756,237 Q 3742,224 3716,221 L 3391,174 Z M 4283,327 L 4283,213 L 4160,213 L 4160,313 Q 4160,352 4136,370 Q 4113,389 4077,389 Q 4051,389 4029,381 Q 4008,374 3993,364 L 3993,213 L 3870,213 L 3870,372 Q 3870,396 3880,411 Q 3890,427 3910,440 Q 3941,461 3986,474 Q 4032,487 4081,487 Q 4130,487 4171,472 Q 4212,457 4238,428 Q 4245,422 4251,416 Q 4257,410 4261,402 Q 4270,387 4276,367 Q 4283,348 4283,327 Z M 4572,317 L 4572,213 L 4449,213 L 4449,313 Q 4449,352 4427,370 Q 4405,389 4368,389 Q 4341,389 4315,378 Q 4290,367 4272,349 L 4210,424 Q 4241,450 4283,468 Q 4325,487 4383,487 Q 4436,487 4479,470 Q 4522,453 4547,415 Q 4572,377 4572,317 Z M 3870,261 L 3993,261 L 3993,2 Q 3985,-1 3970,-3 Q 3955,-6 3937,-6 Q 3903,-6 3886,6 Q 3870,19 3870,51 L 3870,261 Z M 4160,261 L 4283,261 L 4283,2 Q 4275,-1 4259,-3 Q 4244,-6 4227,-6 Q 4192,-6 4176,6 Q 4160,19 4160,51 L 4160,261 Z M 4449,261 L 4572,261 L 4572,2 Q 4565,-1 4549,-3 Q 4534,-6 4517,-6 Q 4482,-6 4465,6 Q 4449,19 4449,51 L 4449,261 Z M 5214,104 L 5214,418 L 5337,418 L 5337,91 Q 5337,69 5327,54 Q 5318,40 5297,27 Q 5273,11 5231,-1 Q 5190,-14 5137,-14 Q 5058,-14 4999,12 Q 4941,39 4909,94 Q 4877,150 4877,235 Q 4877,322 4909,378 Q 4942,434 4997,460 Q 5052,487 5119,487 Q 5156,487 5186,478 Q 5217,469 5236,457 L 5236,352 Q 5220,367 5194,378 Q 5168,389 5134,389 Q 5097,389 5067,373 Q 5037,358 5020,323 Q 5003,289 5003,234 Q 5003,156 5039,120 Q 5075,84 5136,84 Q 5163,84 5182,90 Q 5201,96 5214,104 Z M 5337,393 L 5214,392 L 5214,650 Q 5221,652 5236,655 Q 5252,658 5269,658 Q 5305,658 5321,645 Q 5337,633 5337,601 L 5337,393 Z" fill="#FFFFFF"/><path d="M 5481,401 L 5607,401 L 5607,2 Q 5599,-1 5583,-3 Q 5567,-6 5549,-6 Q 5513,-6 5497,7 Q 5481,21 5481,53 L 5481,401 Z M 5607,255 L 5481,255 L 5481,607 Q 5489,609 5506,612 Q 5523,615 5540,615 Q 5575,615 5591,602 Q 5607,590 5607,556 L 5607,255 Z M 5995,504 L 5990,504 Q 5977,468 5961,422 Q 5946,376 5929,326 Q 5912,277 5897,231 L 5883,169 Q 5877,150 5870,127 Q 5864,104 5856,80 Q 5849,57 5842,36 Q 5836,15 5831,-1 Q 5821,-4 5809,-6 Q 5798,-9 5782,-9 Q 5750,-9 5731,3 Q 5713,16 5713,41 Q 5713,52 5716,64 Q 5720,76 5724,91 Q 5734,124 5751,173 Q 5768,223 5788,281 Q 5808,339 5829,398 Q 5851,457 5870,508 Q 5889,560 5903,595 Q 5915,602 5940,608 Q 5965,614 5991,614 Q 6025,614 6053,604 Q 6082,594 6089,572 Q 6110,517 6134,446 Q 6158,375 6183,298 Q 6208,221 6231,148 Q 6254,75 6272,16 Q 6262,5 6244,-2 Q 6227,-9 6204,-9 Q 6171,-9 6156,3 Q 6142,16 6134,42 L 6093,173 L 6080,237 Q 6064,288 6048,337 Q 6033,387 6019,430 Q 6005,473 5995,504 Z M 5827,145 L 5874,244 L 6124,244 L 6143,145 L 5827,145 Z" fill="#FF7A5C"/><path d="M 6395.0,940.0 L 6445.9,790.9 L 6595.0,740.0 L 6445.9,689.1 L 6395.0,540.0 L 6344.1,689.1 L 6195.0,740.0 L 6344.1,790.9 Z" fill="#FF7A5C"/></g></svg>